<svg id="Layer_3" data-name="Layer 3" xmlns="http://www.w3.org/2000/svg" viewBox="0 0 979.28 289.74"><defs><style>.cls-1{fill:#fff;}</style></defs><title>wamplos</title><path class="cls-1" d="M4663.63,441.54a66.15,66.15,0,0,0-35-9.68c-39.55,0-74.43,32.47-77.91,72.45s25.76,72.37,65.31,72.34a75.38,75.38,0,0,0,36.65-9.74l-0.85,9.71,35.81,0,12.61-144.79-35.81,0Zm-44.42,98.91c-19.77,0-34.39-16.18-32.65-36.17s19.18-36.21,39-36.23,34.39,16.18,32.65,36.17S4639,540.44,4619.21,540.45Z" transform="translate(-4321.68 -359.07)"/><polygon class="cls-1" points="775.77 217.22 811.57 217.19 830.48 0 794.68 0.03 775.77 217.22"/><path class="cls-1" d="M5235.37,431.39c-39.55,0-74.43,32.47-77.91,72.45s25.76,72.37,65.31,72.34,74.43-32.47,77.91-72.45S5274.92,431.36,5235.37,431.39ZM5225.91,540c-19.77,0-34.39-16.18-32.65-36.17s19.18-36.21,39-36.23,34.39,16.18,32.65,36.17S5245.69,540,5225.91,540Z" transform="translate(-4321.68 -359.07)"/><path class="cls-1" d="M5020.54,431.56a76.66,76.66,0,0,0-46.14,15.94l1.38-15.9-35.81,0-18.91,217.19,35.81,0,7.69-88.3a65.29,65.29,0,0,0,43.37,15.87c39.55,0,74.43-32.47,77.91-72.45S5060.09,431.53,5020.54,431.56Zm-9.46,108.59c-19.77,0-34.39-16.18-32.65-36.17s19.18-36.21,39-36.23,34.39,16.18,32.65,36.17S5030.86,540.14,5011.08,540.15Z" transform="translate(-4321.68 -359.07)"/><path class="cls-1" d="M4872.17,429.43q-21.87,0-38.84,22-8.38-22-36-22c-13.79,0-25.5,6.29-36.71,18.84l0.22-16.14-35.76,0-12.57,144.36,38.14,0L4759,481.3A23.8,23.8,0,0,1,4768.8,464a17,17,0,0,1,9.5-3.43c8.67-.07,13.21,1.86,16.14,5.6s4,9.8,3.3,18.18l-8,92.14,38.14,0,8-92.95a28.5,28.5,0,0,1,7.05-16.52c3.86-4.32,8.13-5.79,12.73-6.49,7.92-1.2,12.74.55,16.27,5.67,2.69,3.9,3.9,9.78,3.18,18l-8,92.27,38.27,0,8-92.19q2.39-27.48-7.77-41.15T4872.17,429.43Z" transform="translate(-4321.68 -359.07)"/><path class="cls-1" d="M4527.56,359.54L4482.3,468.17l-5-64c-2-25.75-22.4-44.61-48.23-44.59l-52.8,126.73-6.38-82.05c-2-25.75-22.4-44.61-48.23-44.59l13.42,172.54c2,25.75,22.4,44.61,48.23,44.59l52.8-126.73,6.38,82.05c2,25.75,22.4,44.61,48.23,44.59L4559.8,411C4570.36,385.68,4554,359.52,4527.56,359.54Z" transform="translate(-4321.68 -359.07)"/></svg>